<svg xmlns="http://www.w3.org/2000/svg" xmlns:xlink="http://www.w3.org/1999/xlink" contentStyleType="text/css" data-diagram-type="CLASS" height="606px" preserveAspectRatio="none" style="width:816px;height:606px;background:#FFFFFF;" version="1.1" viewBox="0 0 816 606" width="816px" zoomAndPan="magnify"><defs/><g><!--class Vector--><g class="entity" data-entity="Vector" data-source-line="5" data-uid="ent0002" id="entity_Vector"><rect fill="#F1F1F1" height="352.0787" rx="2.5" ry="2.5" style="stroke:#181818;stroke-width:0.5;" width="276.5709" x="162.5" y="10"/><ellipse cx="177.5" cy="26" fill="#ADD1B2" rx="11" ry="11" style="stroke:#181818;stroke-width:1;"/><path d="M180.4688,31.6406 Q179.8906,31.9375 179.25,32.0781 Q178.6094,32.2344 177.9063,32.2344 Q175.4063,32.2344 174.0781,30.5938 Q172.7656,28.9375 172.7656,25.8125 Q172.7656,22.6875 174.0781,21.0313 Q175.4063,19.375 177.9063,19.375 Q178.6094,19.375 179.25,19.5313 Q179.9063,19.6875 180.4688,19.9844 L180.4688,22.7031 Q179.8438,22.125 179.25,21.8594 Q178.6563,21.5781 178.0313,21.5781 Q176.6875,21.5781 176,22.6563 Q175.3125,23.7188 175.3125,25.8125 Q175.3125,27.9063 176,28.9844 Q176.6875,30.0469 178.0313,30.0469 Q178.6563,30.0469 179.25,29.7813 Q179.8438,29.5 180.4688,28.9219 L180.4688,31.6406 Z " fill="#000000"/><text fill="#000000" font-family="sans-serif" font-size="14" lengthAdjust="spacing" textLength="69.6777" x="191.5" y="32.104">std::vector</text><rect fill="#FFFFFF" height="19.3761" style="stroke:#181818;stroke-width:1;stroke-dasharray:2,2;" width="172.8932" x="269.1777" y="7"/><text fill="#000000" font-family="sans-serif" font-size="12" font-style="italic" lengthAdjust="spacing" textLength="170.8932" x="270.1777" y="21.9201">T, Allocator = std::allocator&lt;T&gt;</text><line style="stroke:#181818;stroke-width:0.5;" x1="163.5" x2="438.0709" y1="42" y2="42"/><text fill="#000000" font-family="sans-serif" font-size="14" lengthAdjust="spacing" textLength="98.5596" x="168.5" y="62.2399">+value_type : T</text><text fill="#000000" font-family="sans-serif" font-size="14" lengthAdjust="spacing" textLength="172.4653" x="168.5" y="82.5118">+allocator_type : Allocator</text><text fill="#000000" font-family="sans-serif" font-size="14" lengthAdjust="spacing" textLength="69.4117" x="168.5" y="102.7838">+size_type</text><text fill="#000000" font-family="sans-serif" font-size="14" lengthAdjust="spacing" textLength="110.6136" x="168.5" y="123.0557">+difference_type</text><text fill="#000000" font-family="sans-serif" font-size="14" lengthAdjust="spacing" textLength="55.7898" x="168.5" y="143.3276">+pointer</text><text fill="#000000" font-family="sans-serif" font-size="14" lengthAdjust="spacing" textLength="99.6096" x="168.5" y="163.5995">+const_pointer</text><text fill="#000000" font-family="sans-serif" font-size="14" lengthAdjust="spacing" textLength="69.8877" x="168.5" y="183.8714">+reference</text><text fill="#000000" font-family="sans-serif" font-size="14" lengthAdjust="spacing" textLength="113.7075" x="168.5" y="204.1433">+const_reference</text><text fill="#000000" font-family="sans-serif" font-size="14" lengthAdjust="spacing" textLength="57.1618" x="168.5" y="224.4152">+iterator</text><text fill="#000000" font-family="sans-serif" font-size="14" lengthAdjust="spacing" textLength="100.9816" x="168.5" y="244.6871">+const_iterator</text><text fill="#000000" font-family="sans-serif" font-size="14" lengthAdjust="spacing" textLength="112.9656" x="168.5" y="264.959">+reverse_iterator</text><line style="stroke:#181818;stroke-width:0.5;" x1="163.5" x2="438.0709" y1="272.991" y2="272.991"/><text fill="#000000" font-family="sans-serif" font-size="14" lengthAdjust="spacing" textLength="72.3797" x="168.5" y="293.231">+capacity()</text><text fill="#000000" font-family="sans-serif" font-size="14" lengthAdjust="spacing" textLength="42.0418" x="168.5" y="313.5029">+size()</text><text fill="#000000" font-family="sans-serif" font-size="14" lengthAdjust="spacing" textLength="145.7254" x="168.5" y="333.7748">+push_back(const T&amp;)</text><text fill="#000000" font-family="sans-serif" font-size="14" lengthAdjust="spacing" textLength="145.7674" x="168.5" y="354.0467">+operator[](size_type)</text></g><!--class Alloc--><g class="entity" data-entity="Alloc" data-source-line="23" data-uid="ent0003" id="entity_Alloc"><rect fill="#F1F1F1" height="48" rx="2.5" ry="2.5" style="stroke:#181818;stroke-width:0.5;" width="130.0157" x="7" y="442"/><ellipse cx="22" cy="458" fill="#ADD1B2" rx="11" ry="11" style="stroke:#181818;stroke-width:1;"/><path d="M24.9688,463.6406 Q24.3906,463.9375 23.75,464.0781 Q23.1094,464.2344 22.4063,464.2344 Q19.9063,464.2344 18.5781,462.5938 Q17.2656,460.9375 17.2656,457.8125 Q17.2656,454.6875 18.5781,453.0313 Q19.9063,451.375 22.4063,451.375 Q23.1094,451.375 23.75,451.5313 Q24.4063,451.6875 24.9688,451.9844 L24.9688,454.7031 Q24.3438,454.125 23.75,453.8594 Q23.1563,453.5781 22.5313,453.5781 Q21.1875,453.5781 20.5,454.6563 Q19.8125,455.7188 19.8125,457.8125 Q19.8125,459.9063 20.5,460.9844 Q21.1875,462.0469 22.5313,462.0469 Q23.1563,462.0469 23.75,461.7813 Q24.3438,461.5 24.9688,460.9219 L24.9688,463.6406 Z " fill="#000000"/><text fill="#000000" font-family="sans-serif" font-size="14" lengthAdjust="spacing" textLength="86.8277" x="36" y="464.104">std::allocator</text><rect fill="#FFFFFF" height="19.3761" style="stroke:#181818;stroke-width:1;stroke-dasharray:2,2;" width="9.188" x="130.8277" y="439"/><text fill="#000000" font-family="sans-serif" font-size="12" font-style="italic" lengthAdjust="spacing" textLength="7.188" x="131.8277" y="453.9201">T</text><line style="stroke:#181818;stroke-width:0.5;" x1="8" x2="136.0157" y1="474" y2="474"/><line style="stroke:#181818;stroke-width:0.5;" x1="8" x2="136.0157" y1="482" y2="482"/></g><!--class Iterator--><g class="entity" data-entity="Iterator" data-source-line="24" data-uid="ent0004" id="entity_Iterator"><rect fill="#F1F1F1" height="48" rx="2.5" ry="2.5" style="stroke:#181818;stroke-width:0.5;" width="196.8213" x="296.5" y="442"/><ellipse cx="311.5" cy="458" fill="#ADD1B2" rx="11" ry="11" style="stroke:#181818;stroke-width:1;"/><path d="M314.4688,463.6406 Q313.8906,463.9375 313.25,464.0781 Q312.6094,464.2344 311.9063,464.2344 Q309.4063,464.2344 308.0781,462.5938 Q306.7656,460.9375 306.7656,457.8125 Q306.7656,454.6875 308.0781,453.0313 Q309.4063,451.375 311.9063,451.375 Q312.6094,451.375 313.25,451.5313 Q313.9063,451.6875 314.4688,451.9844 L314.4688,454.7031 Q313.8438,454.125 313.25,453.8594 Q312.6563,453.5781 312.0313,453.5781 Q310.6875,453.5781 310,454.6563 Q309.3125,455.7188 309.3125,457.8125 Q309.3125,459.9063 310,460.9844 Q310.6875,462.0469 312.0313,462.0469 Q312.6563,462.0469 313.25,461.7813 Q313.8438,461.5 314.4688,460.9219 L314.4688,463.6406 Z " fill="#000000"/><text fill="#000000" font-family="sans-serif" font-size="14" lengthAdjust="spacing" textLength="164.8213" x="325.5" y="464.104">iterator (random_access)</text><line style="stroke:#181818;stroke-width:0.5;" x1="297.5" x2="492.3213" y1="474" y2="474"/><line style="stroke:#181818;stroke-width:0.5;" x1="297.5" x2="492.3213" y1="482" y2="482"/></g><!--class CIterator--><g class="entity" data-entity="CIterator" data-source-line="25" data-uid="ent0005" id="entity_CIterator"><rect fill="#F1F1F1" height="48" rx="2.5" ry="2.5" style="stroke:#181818;stroke-width:0.5;" width="125.2116" x="238.5" y="551"/><ellipse cx="253.5" cy="567" fill="#ADD1B2" rx="11" ry="11" style="stroke:#181818;stroke-width:1;"/><path d="M256.4688,572.6406 Q255.8906,572.9375 255.25,573.0781 Q254.6094,573.2344 253.9063,573.2344 Q251.4063,573.2344 250.0781,571.5938 Q248.7656,569.9375 248.7656,566.8125 Q248.7656,563.6875 250.0781,562.0313 Q251.4063,560.375 253.9063,560.375 Q254.6094,560.375 255.25,560.5313 Q255.9063,560.6875 256.4688,560.9844 L256.4688,563.7031 Q255.8438,563.125 255.25,562.8594 Q254.6563,562.5781 254.0313,562.5781 Q252.6875,562.5781 252,563.6563 Q251.3125,564.7188 251.3125,566.8125 Q251.3125,568.9063 252,569.9844 Q252.6875,571.0469 254.0313,571.0469 Q254.6563,571.0469 255.25,570.7813 Q255.8438,570.5 256.4688,569.9219 L256.4688,572.6406 Z " fill="#000000"/><text fill="#000000" font-family="sans-serif" font-size="14" lengthAdjust="spacing" textLength="93.2116" x="267.5" y="573.104">const_iterator</text><line style="stroke:#181818;stroke-width:0.5;" x1="239.5" x2="362.7116" y1="583" y2="583"/><line style="stroke:#181818;stroke-width:0.5;" x1="239.5" x2="362.7116" y1="591" y2="591"/></g><!--class RIterator--><g class="entity" data-entity="RIterator" data-source-line="26" data-uid="ent0006" id="entity_RIterator"><rect fill="#F1F1F1" height="48" rx="2.5" ry="2.5" style="stroke:#181818;stroke-width:0.5;" width="137.1956" x="447.5" y="551"/><ellipse cx="462.5" cy="567" fill="#ADD1B2" rx="11" ry="11" style="stroke:#181818;stroke-width:1;"/><path d="M465.4688,572.6406 Q464.8906,572.9375 464.25,573.0781 Q463.6094,573.2344 462.9063,573.2344 Q460.4063,573.2344 459.0781,571.5938 Q457.7656,569.9375 457.7656,566.8125 Q457.7656,563.6875 459.0781,562.0313 Q460.4063,560.375 462.9063,560.375 Q463.6094,560.375 464.25,560.5313 Q464.9063,560.6875 465.4688,560.9844 L465.4688,563.7031 Q464.8438,563.125 464.25,562.8594 Q463.6563,562.5781 463.0313,562.5781 Q461.6875,562.5781 461,563.6563 Q460.3125,564.7188 460.3125,566.8125 Q460.3125,568.9063 461,569.9844 Q461.6875,571.0469 463.0313,571.0469 Q463.6563,571.0469 464.25,570.7813 Q464.8438,570.5 465.4688,569.9219 L465.4688,572.6406 Z " fill="#000000"/><text fill="#000000" font-family="sans-serif" font-size="14" lengthAdjust="spacing" textLength="105.1956" x="476.5" y="573.104">reverse_iterator</text><line style="stroke:#181818;stroke-width:0.5;" x1="448.5" x2="583.6956" y1="583" y2="583"/><line style="stroke:#181818;stroke-width:0.5;" x1="448.5" x2="583.6956" y1="591" y2="591"/></g><g class="entity" data-entity="GMN13" data-source-line="40" data-uid="ent0014" id="entity_GMN13"><path d="M474.5,153 L474.5,182 L439.53,186 L474.5,190 L474.5,219.472 A0,0 0 0 0 474.5,219.472 L809.5412,219.472 A0,0 0 0 0 809.5412,219.472 L809.5412,163 L799.5412,153 L474.5,153 A0,0 0 0 0 474.5,153" fill="#FEFFDD" style="stroke:#181818;stroke-width:0.5;"/><path d="M799.5412,153 L799.5412,163 L809.5412,163 L799.5412,153" fill="#FEFFDD" style="stroke:#181818;stroke-width:0.5;"/><text fill="#000000" font-family="sans-serif" font-size="13" lengthAdjust="spacing" textLength="158.1191" x="480.5" y="173.08">This diagram is simplified:</text><text fill="#000000" font-family="sans-serif" font-size="13" lengthAdjust="spacing" textLength="226.4212" x="480.5" y="191.904">- nested typedefs shown as attributes</text><text fill="#000000" font-family="sans-serif" font-size="13" lengthAdjust="spacing" textLength="314.0412" x="480.5" y="210.728">- many helper functions and specializations omitted</text></g><!--reverse link Vector to Alloc--><g class="link" data-entity-1="Vector" data-entity-2="Alloc" data-source-line="29" data-uid="lnk7" id="link_Vector_Alloc"><path codeLine="29" d="M154.575,332.1395 C135.155,354.2695 124.23,368.61 108,392 C97.12,407.67 87.71,427.12 81.24,441.99" fill="none" id="Vector-backto-Alloc" style="stroke:#181818;stroke-width:1;"/><polygon fill="#181818" points="162.49,323.12,155.526,324.9914,154.575,332.1395,161.539,330.2681,162.49,323.12" style="stroke:#181818;stroke-width:1;"/><text fill="#000000" font-family="sans-serif" font-size="13" lengthAdjust="spacing" textLength="71.7861" x="109" y="408.08">uses / holds</text></g><!--reverse link Vector to Iterator--><g class="link" data-entity-1="Vector" data-entity-2="Iterator" data-source-line="30" data-uid="lnk8" id="link_Vector_Iterator"><path codeLine="30" d="M364.1053,373.6372 C374.8153,405.2972 380.76,422.89 387.2,441.94" fill="none" id="Vector-backto-Iterator" style="stroke:#181818;stroke-width:1;"/><polygon fill="none" points="360.26,362.27,358.3936,369.2354,364.1053,373.6372,365.9717,366.6718,360.26,362.27" style="stroke:#181818;stroke-width:1;"/><text fill="#000000" font-family="sans-serif" font-size="13" lengthAdjust="spacing" textLength="52.6761" x="379" y="408.08">provides</text></g><!--reverse link Vector to CIterator--><g class="link" data-entity-1="Vector" data-entity-2="CIterator" data-source-line="31" data-uid="lnk9" id="link_Vector_CIterator"><path codeLine="31" d="M217.8797,374.0282 C208.3497,416.4482 209.4,449.51 225,490 C234.26,514.04 253.95,535.47 270.96,550.67" fill="none" id="Vector-backto-CIterator" style="stroke:#181818;stroke-width:1;"/><polygon fill="none" points="220.51,362.32,215.2921,367.2973,217.8797,374.0282,223.0976,369.0509,220.51,362.32" style="stroke:#181818;stroke-width:1;"/><text fill="#000000" font-family="sans-serif" font-size="13" lengthAdjust="spacing" textLength="52.6761" x="226" y="472.08">provides</text></g><!--reverse link Vector to RIterator--><g class="link" data-entity-1="Vector" data-entity-2="RIterator" data-source-line="32" data-uid="lnk10" id="link_Vector_RIterator"><path codeLine="32" d="M447.3601,356.4904 C483.5101,399.8904 506.15,429.24 511,442 C524.69,478.01 522.57,523.61 519.49,550.7" fill="none" id="Vector-backto-RIterator" style="stroke:#181818;stroke-width:1;"/><polygon fill="none" points="439.68,347.27,440.4466,354.4402,447.3601,356.4904,446.5935,349.3202,439.68,347.27" style="stroke:#181818;stroke-width:1;"/><text fill="#000000" font-family="sans-serif" font-size="13" lengthAdjust="spacing" textLength="52.6761" x="522" y="472.08">provides</text></g><!--reverse link Iterator to CIterator--><g class="link" data-entity-1="Iterator" data-entity-2="CIterator" data-source-line="35" data-uid="lnk11" id="link_Iterator_CIterator"><path codeLine="35" d="M362.7203,503.743 C346.9603,521.683 337.11,532.89 321.36,550.83" fill="none" id="Iterator-backto-CIterator" style="stroke:#181818;stroke-width:1;"/><polygon fill="none" points="374.6,490.22,358.2126,499.7831,367.2279,507.7029,374.6,490.22" style="stroke:#181818;stroke-width:1;"/></g><!--reverse link Iterator to RIterator--><g class="link" data-entity-1="Iterator" data-entity-2="RIterator" data-source-line="36" data-uid="lnk12" id="link_Iterator_RIterator"><path codeLine="36" d="M434.7449,502.143 C455.0349,520.083 469.51,532.89 489.8,550.83" fill="none" id="Iterator-backto-RIterator" style="stroke:#181818;stroke-width:1;"/><polygon fill="none" points="421.26,490.22,430.7705,506.638,438.7192,497.6481,421.26,490.22" style="stroke:#181818;stroke-width:1;"/></g><!--SRC=[XLDFJnD17BtFfvXmaA8IF3T8GZXnnSQBCSqmEsKdR6SsEzCQK1CEK275jY66H4YhA0QYH25SI5lXotHssrE_Wh_TxgujCV6ocNdlxU_lcsaStDRC_k6mUsHg7R-sPwvQ_jQPkQoRurl_ypkarhbmYKUAc3f4gKMjFRvQqcoPIl6CRpBy1A5f77muxzrizMw- - -SdVlFETEl1qNPmrJ6DztxpM__aF3Xj-zV7fbL5KHWyfRILpPOPrTARppt6YuuZAO4BVeeZYYJ0V6vXOGeJXPz7OlmQFS9bufHONc-u36Tn3e1KdO1fF20Lb1dXSBPueS0y9cYAk98BpK8TTAHq_k_TOx4qvSOH3g8umOWS0pnMPfvYun0bBg5SRsHcuegYWrjITdwLqFLC50Fd7eIeT4U_lNYPIMkVGM_HnEp61nJD9sevaIIPSSOZmfB5FA6KAJKJAPUJicBnPFsHPEc-vdvBaMebLO47pCvrSDqPTdTD_LV_h38o5PL5LogkkHHu3dvHad8ItxYmcSSrWNaEktietk_3sTbHAx35ac8AXBPqB9Nm4lWaBKXSJvQvnIRefV_mA__YeOFUxLslNGiQbVxPrs5ttrnMqYs3mpl-RiDyQeEheSVGpzjrA3lK_MmDFkx0DwXTzcxQGVKY-54DpT-gpi4iUks3_kyBbEQSVpDUuZryOgA3BqrpUkZN6s6samga7JHRKVuz9AHcsEDhjiQo4ByDX7CsL-1niXO-M3WgNdGTNk3CoY8yYmLJcbauz9F52a3RyfK85qcIPwr2MP683Mmp1so82oL1mts1HbXOkGpsv_1DCi9aaMk8Y1XmOKNe3m00]--></g></svg>